<mxfile host="app.diagrams.net" modified="2023-05-25T13:50:01.020Z" agent="Mozilla/5.0 (Windows NT 10.0; Win64; x64) AppleWebKit/537.36 (KHTML, like Gecko) Chrome/113.0.0.0 Safari/537.36 Edg/113.0.1774.50" etag="fC7MPknSuHc07nK0sNEU" version="21.3.3" type="device" pages="2">
  <diagram id="C5RBs43oDa-KdzZeNtuy" name="Mqtt_Class">
    <mxGraphModel dx="588" dy="377" grid="1" gridSize="10" guides="1" tooltips="1" connect="1" arrows="1" fold="1" page="1" pageScale="1" pageWidth="827" pageHeight="1169" math="0" shadow="0">
      <root>
        <mxCell id="WIyWlLk6GJQsqaUBKTNV-0" />
        <mxCell id="WIyWlLk6GJQsqaUBKTNV-1" parent="WIyWlLk6GJQsqaUBKTNV-0" />
        <mxCell id="zkfFHV4jXpPFQw0GAbJ--0" value="Mqtt&#xa;" style="swimlane;fontStyle=2;align=center;verticalAlign=top;childLayout=stackLayout;horizontal=1;startSize=26;horizontalStack=0;resizeParent=1;resizeLast=0;collapsible=1;marginBottom=0;rounded=0;shadow=0;strokeWidth=1;" parent="WIyWlLk6GJQsqaUBKTNV-1" vertex="1">
          <mxGeometry x="220" y="120" width="350" height="370" as="geometry">
            <mxRectangle x="230" y="140" width="160" height="26" as="alternateBounds" />
          </mxGeometry>
        </mxCell>
        <mxCell id="zkfFHV4jXpPFQw0GAbJ--1" value="+ mqtt_broker -&gt; str: broker để kết nối đến&#xa;+ mqtt_port -&gt; str: port để kết nối đến&#xa;+ client_id -&gt; str: tên id của client được tạo ra&#xa;+ topic_list -&gt; dict: các topic hiện đang có " style="text;align=left;verticalAlign=top;spacingLeft=4;spacingRight=4;overflow=hidden;rotatable=0;points=[[0,0.5],[1,0.5]];portConstraint=eastwest;" parent="zkfFHV4jXpPFQw0GAbJ--0" vertex="1">
          <mxGeometry y="26" width="350" height="84" as="geometry" />
        </mxCell>
        <mxCell id="zkfFHV4jXpPFQw0GAbJ--4" value="" style="line;html=1;strokeWidth=1;align=left;verticalAlign=middle;spacingTop=-1;spacingLeft=3;spacingRight=3;rotatable=0;labelPosition=right;points=[];portConstraint=eastwest;" parent="zkfFHV4jXpPFQw0GAbJ--0" vertex="1">
          <mxGeometry y="110" width="350" height="8" as="geometry" />
        </mxCell>
        <mxCell id="zkfFHV4jXpPFQw0GAbJ--5" value="+ __init__(self, __mqtt_broker, __mqtt_port, __topic,  __table) &#xa;    -&gt; None: khai báo các giá trị cho object&#xa;+ connect_mqtt(self) -&gt;paho.mqtt.client.Client(): Tạo ra một &#xa;   client và kết nối client này đến broker được khai báo,  và &#xa;    trả client đó về&#xa;+ insert_to_DB(self, data, __database, __user, __password,&#xa;    __host, __port) -&gt; None: Nhận dữ liệu từ topic, giải mã ra &#xa;    và lưu dữ liệu đó vào bảng tương ứng trong cơ sở dữ liệu&#xa;+ subscribe(self, client) -&gt; None: cho client được truyền vào &#xa;    subscribe đến một topic được khai báo và triển khai hàm &#xa;    callback on_message để xử lý dữ liệu nhận được từ topic &#xa;    và lưu dữ liệu đó vào database&#xa;+ run(self) -&gt; None: Tạo ra một client và kết nối client này tới &#xa;    broker được khai báo, cho client này subscribe tới một topic&#xa;    được khai báo với hàm callback on_message được khai báo,&#xa;    chạy luồng process riêng để xử lý client này " style="text;align=left;verticalAlign=top;spacingLeft=4;spacingRight=4;overflow=hidden;rotatable=0;points=[[0,0.5],[1,0.5]];portConstraint=eastwest;" parent="zkfFHV4jXpPFQw0GAbJ--0" vertex="1">
          <mxGeometry y="118" width="350" height="252" as="geometry" />
        </mxCell>
      </root>
    </mxGraphModel>
  </diagram>
  <diagram id="5BgicBRD4lEnUaBedJcI" name="luu_do_thuat_toan">
    <mxGraphModel dx="635" dy="407" grid="1" gridSize="10" guides="1" tooltips="1" connect="1" arrows="1" fold="1" page="1" pageScale="1" pageWidth="850" pageHeight="1100" math="0" shadow="0">
      <root>
        <mxCell id="0" />
        <mxCell id="1" parent="0" />
        <mxCell id="z_z28FidqORHyVtzDRN2-3" style="edgeStyle=orthogonalEdgeStyle;rounded=0;orthogonalLoop=1;jettySize=auto;html=1;exitX=0.5;exitY=1;exitDx=0;exitDy=0;entryX=0.5;entryY=0;entryDx=0;entryDy=0;" edge="1" parent="1" source="z_z28FidqORHyVtzDRN2-1" target="z_z28FidqORHyVtzDRN2-2">
          <mxGeometry relative="1" as="geometry" />
        </mxCell>
        <mxCell id="z_z28FidqORHyVtzDRN2-1" value="Start" style="rounded=1;whiteSpace=wrap;html=1;" vertex="1" parent="1">
          <mxGeometry x="390" y="60" width="60" height="30" as="geometry" />
        </mxCell>
        <mxCell id="z_z28FidqORHyVtzDRN2-6" style="edgeStyle=orthogonalEdgeStyle;rounded=0;orthogonalLoop=1;jettySize=auto;html=1;exitX=0.5;exitY=1;exitDx=0;exitDy=0;entryX=0.5;entryY=0;entryDx=0;entryDy=0;" edge="1" parent="1" source="z_z28FidqORHyVtzDRN2-2" target="z_z28FidqORHyVtzDRN2-4">
          <mxGeometry relative="1" as="geometry" />
        </mxCell>
        <mxCell id="z_z28FidqORHyVtzDRN2-8" style="edgeStyle=orthogonalEdgeStyle;rounded=0;orthogonalLoop=1;jettySize=auto;html=1;exitX=0.5;exitY=1;exitDx=0;exitDy=0;entryX=0.5;entryY=0;entryDx=0;entryDy=0;" edge="1" parent="1" source="z_z28FidqORHyVtzDRN2-2" target="z_z28FidqORHyVtzDRN2-5">
          <mxGeometry relative="1" as="geometry" />
        </mxCell>
        <mxCell id="z_z28FidqORHyVtzDRN2-2" value="Tạo hai object client từ Class Mqtt với các tham số khởi tạo cần thiết&amp;nbsp;" style="rounded=0;whiteSpace=wrap;html=1;" vertex="1" parent="1">
          <mxGeometry x="355" y="130" width="130" height="60" as="geometry" />
        </mxCell>
        <mxCell id="z_z28FidqORHyVtzDRN2-11" style="edgeStyle=orthogonalEdgeStyle;rounded=0;orthogonalLoop=1;jettySize=auto;html=1;exitX=0.5;exitY=1;exitDx=0;exitDy=0;entryX=0.5;entryY=0;entryDx=0;entryDy=0;" edge="1" parent="1" source="z_z28FidqORHyVtzDRN2-4" target="z_z28FidqORHyVtzDRN2-9">
          <mxGeometry relative="1" as="geometry" />
        </mxCell>
        <mxCell id="z_z28FidqORHyVtzDRN2-4" value="Cho client 1 kết nối đến&amp;nbsp; broker và subscribe đến topic sensor, chạy vòng lặp liên tục" style="rounded=0;whiteSpace=wrap;html=1;" vertex="1" parent="1">
          <mxGeometry x="230" y="240" width="140" height="60" as="geometry" />
        </mxCell>
        <mxCell id="z_z28FidqORHyVtzDRN2-12" style="edgeStyle=orthogonalEdgeStyle;rounded=0;orthogonalLoop=1;jettySize=auto;html=1;exitX=0.5;exitY=1;exitDx=0;exitDy=0;entryX=0.5;entryY=0;entryDx=0;entryDy=0;" edge="1" parent="1" source="z_z28FidqORHyVtzDRN2-5" target="z_z28FidqORHyVtzDRN2-10">
          <mxGeometry relative="1" as="geometry" />
        </mxCell>
        <mxCell id="z_z28FidqORHyVtzDRN2-5" value="Cho client 2 kết nối đến broker và subscribe đến topic actuator, chạy vòng lặp liên tục" style="rounded=0;whiteSpace=wrap;html=1;" vertex="1" parent="1">
          <mxGeometry x="470" y="240" width="140" height="60" as="geometry" />
        </mxCell>
        <mxCell id="z_z28FidqORHyVtzDRN2-17" style="edgeStyle=orthogonalEdgeStyle;rounded=0;orthogonalLoop=1;jettySize=auto;html=1;exitX=0.5;exitY=1;exitDx=0;exitDy=0;entryX=0.5;entryY=0;entryDx=0;entryDy=0;" edge="1" parent="1" source="z_z28FidqORHyVtzDRN2-9" target="z_z28FidqORHyVtzDRN2-13">
          <mxGeometry relative="1" as="geometry" />
        </mxCell>
        <mxCell id="z_z28FidqORHyVtzDRN2-9" value="có dữ liệu từ &lt;br&gt;sensor gửi đến ?&amp;nbsp;" style="rhombus;whiteSpace=wrap;html=1;" vertex="1" parent="1">
          <mxGeometry x="230" y="330" width="140" height="60" as="geometry" />
        </mxCell>
        <mxCell id="z_z28FidqORHyVtzDRN2-18" style="edgeStyle=orthogonalEdgeStyle;rounded=0;orthogonalLoop=1;jettySize=auto;html=1;exitX=0.5;exitY=1;exitDx=0;exitDy=0;entryX=0.5;entryY=0;entryDx=0;entryDy=0;" edge="1" parent="1" source="z_z28FidqORHyVtzDRN2-10" target="z_z28FidqORHyVtzDRN2-16">
          <mxGeometry relative="1" as="geometry" />
        </mxCell>
        <mxCell id="z_z28FidqORHyVtzDRN2-10" value="có dữ liệu từ &lt;br&gt;actuator gửi đến ?&amp;nbsp;" style="rhombus;whiteSpace=wrap;html=1;" vertex="1" parent="1">
          <mxGeometry x="470" y="330" width="140" height="60" as="geometry" />
        </mxCell>
        <mxCell id="z_z28FidqORHyVtzDRN2-13" value="Giải mã dữ liệu nhận được, lưu vào database tương ứng&amp;nbsp;" style="rounded=0;whiteSpace=wrap;html=1;" vertex="1" parent="1">
          <mxGeometry x="240" y="430" width="120" height="60" as="geometry" />
        </mxCell>
        <mxCell id="z_z28FidqORHyVtzDRN2-16" value="Giải mã dữ liệu nhận được, lưu vào database tương ứng&amp;nbsp;" style="rounded=0;whiteSpace=wrap;html=1;" vertex="1" parent="1">
          <mxGeometry x="480" y="430" width="120" height="60" as="geometry" />
        </mxCell>
        <mxCell id="z_z28FidqORHyVtzDRN2-19" value="Yes" style="text;html=1;strokeColor=none;fillColor=none;align=center;verticalAlign=middle;whiteSpace=wrap;rounded=0;" vertex="1" parent="1">
          <mxGeometry x="290" y="390" width="60" height="30" as="geometry" />
        </mxCell>
        <mxCell id="z_z28FidqORHyVtzDRN2-20" value="Yes" style="text;html=1;strokeColor=none;fillColor=none;align=center;verticalAlign=middle;whiteSpace=wrap;rounded=0;" vertex="1" parent="1">
          <mxGeometry x="530" y="390" width="60" height="30" as="geometry" />
        </mxCell>
        <mxCell id="z_z28FidqORHyVtzDRN2-21" value="No" style="text;html=1;strokeColor=none;fillColor=none;align=center;verticalAlign=middle;whiteSpace=wrap;rounded=0;" vertex="1" parent="1">
          <mxGeometry x="170" y="320" width="60" height="30" as="geometry" />
        </mxCell>
        <mxCell id="z_z28FidqORHyVtzDRN2-23" value="" style="endArrow=classic;html=1;rounded=0;exitX=0;exitY=0.5;exitDx=0;exitDy=0;" edge="1" parent="1" source="z_z28FidqORHyVtzDRN2-9">
          <mxGeometry width="50" height="50" relative="1" as="geometry">
            <mxPoint x="400" y="440" as="sourcePoint" />
            <mxPoint x="300" y="310" as="targetPoint" />
            <Array as="points">
              <mxPoint x="210" y="360" />
              <mxPoint x="210" y="310" />
            </Array>
          </mxGeometry>
        </mxCell>
        <mxCell id="z_z28FidqORHyVtzDRN2-24" value="" style="endArrow=classic;html=1;rounded=0;exitX=0;exitY=0.5;exitDx=0;exitDy=0;" edge="1" parent="1" source="z_z28FidqORHyVtzDRN2-10">
          <mxGeometry width="50" height="50" relative="1" as="geometry">
            <mxPoint x="400" y="440" as="sourcePoint" />
            <mxPoint x="540" y="310" as="targetPoint" />
            <Array as="points">
              <mxPoint x="460" y="360" />
              <mxPoint x="460" y="340" />
              <mxPoint x="460" y="310" />
            </Array>
          </mxGeometry>
        </mxCell>
        <mxCell id="z_z28FidqORHyVtzDRN2-25" value="No" style="text;html=1;strokeColor=none;fillColor=none;align=center;verticalAlign=middle;whiteSpace=wrap;rounded=0;" vertex="1" parent="1">
          <mxGeometry x="410" y="320" width="60" height="30" as="geometry" />
        </mxCell>
      </root>
    </mxGraphModel>
  </diagram>
</mxfile>
